<?xml version="1.0" encoding="UTF-8" standalone="no"?>
<!-- Created with Inkscape (http://www.inkscape.org/) -->

<svg
   xmlns:dc="http://purl.org/dc/elements/1.1/"
   xmlns:cc="http://creativecommons.org/ns#"
   xmlns:rdf="http://www.w3.org/1999/02/22-rdf-syntax-ns#"
   xmlns:svg="http://www.w3.org/2000/svg"
   xmlns="http://www.w3.org/2000/svg"
   xmlns:sodipodi="http://sodipodi.sourceforge.net/DTD/sodipodi-0.dtd"
   xmlns:inkscape="http://www.inkscape.org/namespaces/inkscape"
   width="128"
   height="113.383"
   viewBox="0 0 128 113.383"
   id="svg4143"
   version="1.1"
   inkscape:version="0.91 r13725"
   inkscape:export-filename="/Users/ASlate/src/arrow_p/assets/sprites/carbon.png"
   inkscape:export-xdpi="89.695984"
   inkscape:export-ydpi="89.695984"
   sodipodi:docname="carbon.svg">
  <defs
     id="defs4145" />
  <sodipodi:namedview
     id="base"
     pagecolor="#ffffff"
     bordercolor="#666666"
     borderopacity="1.0"
     inkscape:pageopacity="0.0"
     inkscape:pageshadow="2"
     inkscape:zoom="1.9872283"
     inkscape:cx="36.933951"
     inkscape:cy="32.844941"
     inkscape:document-units="px"
     inkscape:current-layer="layer1"
     showgrid="false"
     units="px"
     inkscape:window-width="1276"
     inkscape:window-height="756"
     inkscape:window-x="0"
     inkscape:window-y="0"
     inkscape:window-maximized="1" />
  <metadata
     id="metadata4148">
    <rdf:RDF>
      <cc:Work
         rdf:about="">
        <dc:format>image/svg+xml</dc:format>
        <dc:type
           rdf:resource="http://purl.org/dc/dcmitype/StillImage" />
        <dc:title />
      </cc:Work>
    </rdf:RDF>
  </metadata>
  <g
     inkscape:label="Layer 1"
     inkscape:groupmode="layer"
     id="layer1"
     transform="translate(0,-938.97916)">
    <path
       style="opacity:1;fill:#1f1f1f;fill-opacity:1;fill-rule:nonzero;stroke:#000000;stroke-width:25;stroke-linecap:butt;stroke-linejoin:round;stroke-miterlimit:4;stroke-dasharray:none;stroke-opacity:0"
       d="M 0 0 L 0 61.414062 L 13.638672 61.414062 L 27.277344 85.037109 L 13.638672 108.66016 L 0 108.66016 L 0 113.38281 L 128 113.38281 L 128 108.66016 L 114.36133 108.66016 L 100.72266 85.037109 L 114.36133 61.414062 L 128 61.414062 L 128 0 L 0 0 z M 18.361328 4.7226562 L 45.638672 4.7226562 L 59.277344 28.345703 L 45.638672 51.96875 L 18.361328 51.96875 L 4.7226562 28.345703 L 18.361328 4.7226562 z M 82.361328 4.7226562 L 109.63867 4.7226562 L 123.27734 28.345703 L 109.63867 51.96875 L 82.361328 51.96875 L 68.722656 28.345703 L 82.361328 4.7226562 z M 50.361328 61.414062 L 77.638672 61.414062 L 91.277344 85.037109 L 77.638672 108.66016 L 50.361328 108.66016 L 36.722656 85.037109 L 50.361328 61.414062 z "
       id="rect4735"
       transform="translate(0,938.97916)" />
  </g>
</svg>
